PathFileType	4	(X/Y/Z)	C:/Users/beibeiliu/ov580/test_trc/User2\sequence.25_training_dense_left.trc
DataRate	CameraRate	NumFrames	NumMarkers	Units	OrigDataRate	OrigDataStartFrame	OrigNumFrames
120	120	12	19	mm	120	137	272
Frame#	Time	ThumbCMC			ThumbMCP			ThumbIP			ThumbTip			IndexMCP			IndexPIP			IndexTip			MiddleMCP			MiddlePIP			MiddleTip			RingMCP			RingPIP			RingTip			PinkyMCP			PinkyPIP			PinkyTip			BackHand1			BackHand2			BackHand3	
		X0	Y0	Z0	X1	Y1	Z1	X2	Y2	Z2	X3	Y3	Z3	X4	Y4	Z4	X5	Y5	Z5	X6	Y6	Z6	X7	Y7	Z7	X8	Y8	Z8	X9	Y9	Z9	X10	Y10	Z10	X11	Y11	Z11	X12	Y12	Z12	X13	Y13	Z13	X14	Y14	Z14	X15	Y15	Z15	X16	Y16	Z16	X17	Y17	Z17	X18	Y18	Z18	
136	1.13333	-163.58	-23.8574	82.2203	-158.256	-18.4486	50.3522	-153.859	-16.2827	19.4846	-149.522	-14.4228	-6.40789	-145.866	-69.2271	12.8399	-117.731	-63.6274	-0.205058	-102.341	-39.4363	19.7005	-130.374	-82.4859	17.7475	-100.06	-63.7966	9.86208	-101.042	-38.4223	42.5061	-117.982	-96.9294	33.2298	-93.9044	-83.0866	20.4422	-93.2311	-54.4946	48.6771	-121.136	-109.407	57.6384	-115.225	-122.885	38.2578	-116.334	-135.126	13.4126	-150.38	-86.166	88.5629	-158.863	-81.5516	117.124	-174.03	-61.8759	86.4536	
137	1.14167	-162.927	-21.6809	84.1505	-157.021	-13.8562	54.3445	-150.091	-17.8723	19.6554	-145.769	-13.74	-4.7329	-147.13	-65.4834	16.9597	-117.595	-56.5878	-1.93915	-103.198	-31.8509	18.8535	-130.576	-78.8667	21.6937	-97.6389	-60.6686	10.7825	-96.1813	-38.7783	45.3781	-115.939	-95.5069	35.5896	-89.2978	-80.8706	23.5709	-92.9485	-50.6538	49.309	-119.552	-105.102	58.7555	-113.48	-119.345	36.0474	-114.348	-128.982	17.3805	-149.51	-85.6794	88.6969	-157.545	-77.3301	118.444	-175.038	-57.7207	85.8122	
138	1.15	-161.548	-16.2955	87.6328	-154.242	-11.9106	56.485	-149.763	-13.6209	17.594	-144.61	-8.1798	-3.13245	-144.545	-62.1391	15.4717	-113.696	-55.0406	0.882118	-101.62	-27.3401	22.2595	-125.78	-77.7097	19.3893	-95.6581	-57.4268	12.8484	-94.9155	-34.897	45.0396	-116.152	-90.4741	34.9641	-89.6134	-74.1955	22.7425	-87.9587	-50.7206	50.3841	-119.383	-100.297	56.4192	-111.912	-115.553	35.1204	-111.816	-123.674	16.4459	-147.215	-86.757	86.0534	-158.267	-73.756	119.829	-173.395	-54.536	84.6424	
139	1.15833	-162.745	-12.0938	84.701	-154.864	-8.71377	54.1872	-147.84	-11.174	20.9567	-142.873	-6.64072	0.771007	-144.59	-55.6293	13.8199	-113.922	-47.2086	-0.263767	-99.6719	-27.0643	21.7592	-123.601	-74.606	18.641	-96.271	-56.7492	11.2334	-94.2877	-31.048	43.2404	-113.033	-85.7358	32.7107	-86.3606	-68.323	24.9645	-91.5979	-43.915	51.2824	-117.285	-96.0732	61.0937	-110.73	-109.184	36.8719	-107.211	-120.359	11.9965	-147.787	-79.247	89.2993	-157.578	-74.5883	115.145	-171.62	-52.1392	88.9316	
140	1.16667	-162.514	-10.2125	86.1949	-155.351	-2.59153	56.9116	-148.993	-3.45817	22.0307	-144.203	1.33892	-2.73143	-142.085	-52.5463	15.6307	-112.074	-43.9018	1.37847	-98.4927	-22.2224	24.2074	-127.407	-66.1401	20.1177	-94.9534	-51.0782	12.2301	-96.1784	-26.0314	46.3045	-115.233	-79.9028	30.8957	-87.9555	-60.5966	23.1771	-93.4868	-39.3226	50.9137	-117.272	-92.8151	57.0342	-111.122	-103.551	33.5786	-109.585	-109.287	10.8247	-147.278	-75.8001	86.9441	-158.722	-68.0192	118.56	-174.815	-47.3594	84.3703	
141	1.175	-164.052	-4.64992	87.532	-155.126	-0.50209	58.1479	-152.141	4.53016	23.385	-144.75	7.2249	3.50735	-145.927	-44.1109	15.6898	-117.679	-39.0642	-0.371617	-101.455	-13.0357	23.5811	-127.881	-62.6251	19.7305	-95.8904	-39.9051	11.9824	-96.2803	-20.7706	45.0796	-112.341	-76.9349	28.8314	-88.1708	-59.2746	23.5848	-90.8232	-38.3313	51.2939	-118.422	-91.5325	52.7682	-112.553	-98.1285	33.0049	-111.534	-106.816	5.16334	-147.097	-73.7105	81.9266	-158.84	-69.0481	113.483	-171.932	-44.7076	86.7456	
142	1.18333	-166.316	0.0297395	90.0496	-157.944	4.11338	59.0158	-153.188	8.19445	24.3011	-146.817	11.9339	2.32211	-147.91	-40.8905	15.5958	-117.049	-35.0481	0.696178	-102.778	-12.4292	23.0982	-128.326	-54.0561	16.1627	-96.6084	-38.1007	12.0967	-99.3446	-18.7678	49.9269	-116.802	-69.2329	28.3215	-89.2137	-53.5239	22.3274	-98.1316	-29.5929	52.1432	-117.914	-87.5136	50.6968	-113.783	-90.8159	28.2659	-110.477	-102.127	6.20743	-149.27	-69.7625	82.2512	-158.604	-68.7787	112.766	-173.539	-43.2983	87.8318	
143	1.19167	-169.032	6.03203e-05	89.2612	-159.647	5.53969	59.7254	-156.615	12.286	26.1652	-151.399	17.6952	3.03014	-149.29	-35.4734	14.8507	-121.118	-28.2198	-1.36324	-107.038	-4.49764	22.6069	-127.672	-51.7605	14.9344	-98.2469	-31.0545	12.8218	-103.655	-10.6512	47.42	-117.7	-65.3196	27.6399	-89.9607	-45.1122	21.828	-95.3438	-26.0118	48.6046	-117.442	-80.6142	52.7373	-113.254	-85.3474	25.9073	-109.137	-95.983	0.438121	-151.705	-67.1259	78.8724	-158.384	-66.3104	112.813	-173.432	-40.9435	87.3285	
144	1.2	-172.006	1.59256	90.3701	-167.342	9.77425	57.8629	-162.626	15.2426	24.9843	-160.227	24.5275	1.26022	-154.119	-31.872	14.1283	-126.803	-18.8558	-2.98552	-112.957	4.69907	22.4632	-133.983	-47.3996	14.82	-105.114	-27.2529	7.9262	-108.382	-4.81413	44.0878	-118.903	-58.5275	21.616	-96.7613	-41.913	16.4948	-99.9489	-20.8527	50.7642	-120.708	-72.8647	48.3991	-112.674	-81.522	21.4206	-110.544	-88.7197	2.28294	-153.285	-64.0312	78.5052	-161.461	-64.1425	111.614	-177.631	-38.146	83.4581	
145	1.20833	-179.595	1.92559	85.6286	-173.777	10.9776	57.8251	-169.911	17.2785	22.8883	-167.274	26.53	1.41537	-157.237	-28.5813	9.3945	-133.249	-16.5549	-5.08821	-118.308	6.42372	16.7059	-138.849	-44.3529	13.6821	-110.929	-23.7004	5.55827	-113.377	0.0172696	42.2611	-126.637	-55.1308	22.9202	-100.682	-36.1718	15.1916	-106.815	-16.4497	46.9073	-122.162	-74.634	42.011	-114.064	-78.178	20.5428	-110.998	-85.1605	-2.3394	-153.226	-63.7336	78.3302	-163.219	-64.8165	109.999	-182.44	-37.1459	84.8171	
146	1.21667	-180.921	-1.86102	87.6165	-176.969	8.94145	57.7973	-178.791	21.7189	25.4206	-172.603	25.9928	2.84359	-161.55	-29.6593	9.62424	-141.008	-14.0898	-7.76412	-123.485	11.1948	18.7246	-145.74	-41.8479	10.4044	-116.266	-20.4842	3.03421	-116.53	0.244296	37.4062	-128.093	-54.2633	17.4668	-104.531	-30.8739	12.8498	-108.394	-14.7409	41.2587	-123.767	-71.2068	41.1465	-119.183	-74.2211	17.6467	-116.354	-80.8643	-7.21216	-155.98	-62.7521	76.8975	-165.045	-64.781	106.81	-185.669	-42.2475	83.9809	
147	1.225	-185.725	-3.03211	84.1472	-184.435	10.1791	56.0737	-181.156	15.1561	23.5495	-182.456	27.3192	0.277365	-168.417	-29.5452	7.92186	-143.703	-15.1216	-9.08655	-128.951	8.88817	12.9851	-144.765	-43.647	8.85263	-121.157	-20.0392	-0.193839	-120.095	0.741185	34.0054	-129.204	-55.6528	18.7233	-110.279	-30.2867	9.95007	-114.039	-13.8804	43.4609	-125.182	-72.842	39.7089	-120.217	-74.2031	12.2449	-115.842	-80.7539	-10.8727	-155.371	-65.8704	73.0115	-167.5	-62.9669	108.893	-189.137	-39.5816	82.5572	
